<?xml version="1.0" encoding="UTF-8"?><svg id="Layer_1" xmlns="http://www.w3.org/2000/svg" viewBox="0 0 1000.28 569.26"><defs><style>.cls-1{fill:#595959;stroke:#c6c6c6;stroke-miterlimit:10;stroke-width:5px;}.cls-2{fill:#d1d3d4;font-family:Freshman, Freshman;font-size:43px;letter-spacing:.22em;}</style></defs><line class="cls-1" x1=".28" y1="3.52" x2="1000.28" y2="3.52"/><line class="cls-1" x1=".28" y1="95.19" x2="1000.28" y2="95.19"/><line class="cls-1" x1=".28" y1="188.44" x2="1000.28" y2="188.44"/><line class="cls-1" x1=".28" y1="375.04" x2="1000.28" y2="375.04"/><line class="cls-1" x1=".28" y1="468.26" x2="1000.28" y2="468.26"/><line class="cls-1" x1=".28" y1="562.55" x2="1000.28" y2="562.55"/><line class="cls-1" x1=".28" y1="283.02" x2="1000.28" y2="283.02"/><line class="cls-1" x1=".28" y1="543.6" x2="14.07" y2="543.6"/><line class="cls-1" x1=".28" y1="525.86" x2="14.07" y2="525.86"/><line class="cls-1" x1=".28" y1="506.66" x2="14.07" y2="506.66"/><line class="cls-1" x1=".14" y1="488.18" x2="13.93" y2="488.18"/><line class="cls-1" x1=".21" y1="449.36" x2="14" y2="449.36"/><line class="cls-1" x1=".21" y1="431.62" x2="14" y2="431.62"/><line class="cls-1" x1=".21" y1="412.42" x2="14" y2="412.42"/><line class="cls-1" x1=".07" y1="393.94" x2="13.86" y2="393.94"/><line class="cls-1" x1=".14" y1="356.14" x2="13.93" y2="356.14"/><line class="cls-1" x1=".14" y1="338.4" x2="13.93" y2="338.4"/><line class="cls-1" x1=".14" y1="319.19" x2="13.93" y2="319.19"/><line class="cls-1" y1="300.71" x2="13.79" y2="300.71"/><line class="cls-1" x1=".21" y1="263.44" x2="14" y2="263.44"/><line class="cls-1" x1=".21" y1="245.7" x2="14" y2="245.7"/><line class="cls-1" x1=".21" y1="226.49" x2="14" y2="226.49"/><line class="cls-1" x1=".07" y1="208.02" x2="13.86" y2="208.02"/><line class="cls-1" x1=".14" y1="169.53" x2="13.93" y2="169.53"/><line class="cls-1" x1=".14" y1="151.78" x2="13.93" y2="151.78"/><line class="cls-1" x1=".14" y1="132.58" x2="13.93" y2="132.58"/><line class="cls-1" y1="114.1" x2="13.79" y2="114.1"/><line class="cls-1" x1=".21" y1="76.07" x2="14" y2="76.07"/><line class="cls-1" x1=".21" y1="58.33" x2="14" y2="58.33"/><line class="cls-1" x1=".21" y1="39.12" x2="14" y2="39.12"/><line class="cls-1" x1=".07" y1="20.64" x2="13.86" y2="20.64"/><line class="cls-1" x1="985.19" y1="543.37" x2="998.98" y2="543.37"/><line class="cls-1" x1="985.19" y1="525.63" x2="998.98" y2="525.63"/><line class="cls-1" x1="985.19" y1="506.43" x2="998.98" y2="506.43"/><line class="cls-1" x1="985.05" y1="487.95" x2="998.84" y2="487.95"/><line class="cls-1" x1="985.12" y1="449.13" x2="998.91" y2="449.13"/><line class="cls-1" x1="985.12" y1="431.39" x2="998.91" y2="431.39"/><line class="cls-1" x1="985.12" y1="412.19" x2="998.91" y2="412.19"/><line class="cls-1" x1="984.98" y1="393.71" x2="998.77" y2="393.71"/><line class="cls-1" x1="985.05" y1="355.91" x2="998.84" y2="355.91"/><line class="cls-1" x1="985.05" y1="338.17" x2="998.84" y2="338.17"/><line class="cls-1" x1="985.05" y1="318.96" x2="998.84" y2="318.96"/><line class="cls-1" x1="984.91" y1="300.49" x2="998.7" y2="300.49"/><line class="cls-1" x1="985.12" y1="263.21" x2="998.91" y2="263.21"/><line class="cls-1" x1="985.12" y1="245.47" x2="998.91" y2="245.47"/><line class="cls-1" x1="985.12" y1="226.26" x2="998.91" y2="226.26"/><line class="cls-1" x1="984.98" y1="207.79" x2="998.77" y2="207.79"/><line class="cls-1" x1="985.05" y1="169.3" x2="998.84" y2="169.3"/><line class="cls-1" x1="985.05" y1="151.56" x2="998.84" y2="151.56"/><line class="cls-1" x1="985.05" y1="132.35" x2="998.84" y2="132.35"/><line class="cls-1" x1="984.91" y1="113.87" x2="998.7" y2="113.87"/><line class="cls-1" x1="986.48" y1="75.84" x2="1000.27" y2="75.84"/><line class="cls-1" x1="986.48" y1="58.1" x2="1000.27" y2="58.1"/><line class="cls-1" x1="986.48" y1="38.89" x2="1000.27" y2="38.89"/><line class="cls-1" x1="986.34" y1="20.42" x2="1000.13" y2="20.42"/><line class="cls-1" x1="322.42" y1="74.85" x2="335.09" y2="74.85"/><line class="cls-1" x1="322.42" y1="57.11" x2="335.09" y2="57.11"/><line class="cls-1" x1="322.42" y1="37.91" x2="335.09" y2="37.91"/><line class="cls-1" x1="322.29" y1="19.43" x2="334.96" y2="19.43"/><line class="cls-1" x1="322.42" y1="168.73" x2="335.09" y2="168.73"/><line class="cls-1" x1="322.42" y1="150.99" x2="335.09" y2="150.99"/><line class="cls-1" x1="322.42" y1="131.79" x2="335.09" y2="131.79"/><line class="cls-1" x1="322.29" y1="113.31" x2="334.96" y2="113.31"/><line class="cls-1" x1="322.42" y1="262.38" x2="335.09" y2="262.38"/><line class="cls-1" x1="322.42" y1="244.64" x2="335.09" y2="244.64"/><line class="cls-1" x1="322.42" y1="225.44" x2="335.09" y2="225.44"/><line class="cls-1" x1="322.29" y1="206.96" x2="334.96" y2="206.96"/><line class="cls-1" x1="322.26" y1="356.16" x2="334.93" y2="356.16"/><line class="cls-1" x1="322.26" y1="338.42" x2="334.93" y2="338.42"/><line class="cls-1" x1="322.26" y1="319.21" x2="334.93" y2="319.21"/><line class="cls-1" x1="322.13" y1="300.74" x2="334.8" y2="300.74"/><line class="cls-1" x1="322.48" y1="449.36" x2="335.15" y2="449.36"/><line class="cls-1" x1="322.48" y1="431.62" x2="335.15" y2="431.62"/><line class="cls-1" x1="322.48" y1="412.42" x2="335.15" y2="412.42"/><line class="cls-1" x1="322.35" y1="393.94" x2="335.02" y2="393.94"/><line class="cls-1" x1="322.19" y1="543.12" x2="334.87" y2="543.12"/><line class="cls-1" x1="322.19" y1="525.38" x2="334.87" y2="525.38"/><line class="cls-1" x1="322.19" y1="506.17" x2="334.87" y2="506.17"/><line class="cls-1" x1="322.07" y1="487.7" x2="334.74" y2="487.7"/><line class="cls-1" x1="667.6" y1="543.12" x2="680.27" y2="543.12"/><line class="cls-1" x1="667.6" y1="525.38" x2="680.27" y2="525.38"/><line class="cls-1" x1="667.6" y1="506.17" x2="680.27" y2="506.17"/><line class="cls-1" x1="667.47" y1="487.7" x2="680.14" y2="487.7"/><line class="cls-1" x1="667.2" y1="449.36" x2="679.87" y2="449.36"/><line class="cls-1" x1="667.2" y1="431.62" x2="679.87" y2="431.62"/><line class="cls-1" x1="667.2" y1="412.42" x2="679.87" y2="412.42"/><line class="cls-1" x1="667.07" y1="393.94" x2="679.74" y2="393.94"/><line class="cls-1" x1="667.14" y1="356.74" x2="679.81" y2="356.74"/><line class="cls-1" x1="667.14" y1="339" x2="679.81" y2="339"/><line class="cls-1" x1="667.14" y1="319.79" x2="679.81" y2="319.79"/><line class="cls-1" x1="667.01" y1="301.32" x2="679.68" y2="301.32"/><line class="cls-1" x1="667.07" y1="262.27" x2="679.74" y2="262.27"/><line class="cls-1" x1="667.07" y1="244.53" x2="679.74" y2="244.53"/><line class="cls-1" x1="667.07" y1="225.32" x2="679.74" y2="225.32"/><line class="cls-1" x1="666.94" y1="206.85" x2="679.62" y2="206.85"/><line class="cls-1" x1="667.01" y1="168.5" x2="679.68" y2="168.5"/><line class="cls-1" x1="667.01" y1="150.76" x2="679.68" y2="150.76"/><line class="cls-1" x1="667.01" y1="131.55" x2="679.68" y2="131.55"/><line class="cls-1" x1="666.88" y1="113.07" x2="679.55" y2="113.07"/><line class="cls-1" x1="667.14" y1="75.7" x2="679.81" y2="75.7"/><line class="cls-1" x1="667.14" y1="57.96" x2="679.81" y2="57.96"/><line class="cls-1" x1="667.14" y1="38.76" x2="679.81" y2="38.76"/><line class="cls-1" x1="667.01" y1="20.28" x2="679.68" y2="20.28"/><line class="cls-1" x1="668.97" y1="7.06" x2="668.97" y2=".06"/><line class="cls-1" x1="668.69" y1="100.6" x2="668.69" y2="88.46"/><line class="cls-1" x1="669.73" y1="194.51" x2="669.73" y2="182.37"/><line class="cls-1" x1="669.69" y1="288.39" x2="669.69" y2="276.25"/><line class="cls-1" x1="669.68" y1="381.41" x2="669.68" y2="369.27"/><line class="cls-1" x1="669.68" y1="474.96" x2="669.68" y2="462.82"/><line class="cls-1" x1="669.68" y1="569.26" x2="669.68" y2="556.75"/><line class="cls-1" x1="332.35" y1="7" x2="332.35"/><line class="cls-1" x1="332.07" y1="100.54" x2="332.07" y2="88.4"/><line class="cls-1" x1="333.11" y1="194.46" x2="333.11" y2="182.32"/><line class="cls-1" x1="333.07" y1="288.33" x2="333.07" y2="276.19"/><line class="cls-1" x1="333.06" y1="381.35" x2="333.06" y2="369.21"/><line class="cls-1" x1="333.06" y1="474.9" x2="333.06" y2="462.76"/><line class="cls-1" x1="333.06" y1="569.2" x2="333.06" y2="556.7"/><text class="cls-2" transform="translate(133.36 61.26) rotate(90)"><tspan x="0" y="0">00</tspan></text><text class="cls-2" transform="translate(133.36 249.45) rotate(90)"><tspan x="0" y="0">00</tspan></text><text class="cls-2" transform="translate(133.36 434.97) rotate(90)"><tspan x="0" y="0">00</tspan></text><text class="cls-2" transform="translate(832.39 61.9) rotate(90)"><tspan x="0" y="0">00</tspan></text><text class="cls-2" transform="translate(832.39 250.08) rotate(90)"><tspan x="0" y="0">00</tspan></text><text class="cls-2" transform="translate(832.39 435.6) rotate(90)"><tspan x="0" y="0">00</tspan></text></svg>